<svg xmlns="http://www.w3.org/2000/svg" style="display:none">
<symbol id="i-home" viewBox="0 0 24 24" fill="none" stroke="currentColor" stroke-width="1.75" stroke-linecap="round" stroke-linejoin="round"><path d="M3 10.5 12 3l9 7.5"/><path d="M5 9.5V20a1 1 0 0 0 1 1h4v-6h4v6h4a1 1 0 0 0 1-1V9.5"/></symbol>
<symbol id="i-download" viewBox="0 0 24 24" fill="none" stroke="currentColor" stroke-width="1.75" stroke-linecap="round" stroke-linejoin="round"><path d="M12 3v12"/><path d="m7 10 5 5 5-5"/><path d="M5 21h14"/></symbol>
<symbol id="i-upload" viewBox="0 0 24 24" fill="none" stroke="currentColor" stroke-width="1.75" stroke-linecap="round" stroke-linejoin="round"><path d="M12 21V9"/><path d="m7 14 5-5 5 5"/><path d="M5 3h14"/></symbol>
<symbol id="i-cloud-download" viewBox="0 0 24 24" fill="none" stroke="currentColor" stroke-width="1.75" stroke-linecap="round" stroke-linejoin="round"><path d="M7 18a4.5 4.5 0 0 1-.5-8.97A6 6 0 0 1 18 9a4 4 0 0 1 0 8"/><path d="M12 12v9"/><path d="m8.5 17.5 3.5 3.5 3.5-3.5"/></symbol>
<symbol id="i-chart" viewBox="0 0 24 24" fill="none" stroke="currentColor" stroke-width="1.75" stroke-linecap="round" stroke-linejoin="round"><path d="M3 3v18h18"/><path d="m7 15 4-4 3 3 6-6"/></symbol>
<symbol id="i-chart-bar" viewBox="0 0 24 24" fill="none" stroke="currentColor" stroke-width="1.75" stroke-linecap="round" stroke-linejoin="round"><path d="M3 3v18h18"/><rect x="7" y="12" width="3" height="6" rx="1"/><rect x="12" y="8" width="3" height="10" rx="1"/><rect x="17" y="5" width="3" height="13" rx="1"/></symbol>
<symbol id="i-list" viewBox="0 0 24 24" fill="none" stroke="currentColor" stroke-width="1.75" stroke-linecap="round" stroke-linejoin="round"><path d="M9 6h11M9 12h11M9 18h11"/><circle cx="4.5" cy="6" r=".9" fill="currentColor"/><circle cx="4.5" cy="12" r=".9" fill="currentColor"/><circle cx="4.5" cy="18" r=".9" fill="currentColor"/></symbol>
<symbol id="i-list-ordered" viewBox="0 0 24 24" fill="none" stroke="currentColor" stroke-width="1.75" stroke-linecap="round" stroke-linejoin="round"><path d="M10 6h10M10 12h10M10 18h10"/><path d="M4 4.5h1.5V9M4 9h3"/><path d="M4 14.5a1.5 1.5 0 0 1 3 .3c0 1.2-3 2-3 4.2h3"/></symbol>
<symbol id="i-list-check" viewBox="0 0 24 24" fill="none" stroke="currentColor" stroke-width="1.75" stroke-linecap="round" stroke-linejoin="round"><path d="M11 6h9M11 12h9M11 18h9"/><path d="m3.5 6 1.5 1.5L8 4.5"/><path d="m3.5 12 1.5 1.5L8 10.5"/><path d="m3.5 18 1.5 1.5L8 16.5"/></symbol>
<symbol id="i-list-music" viewBox="0 0 24 24" fill="none" stroke="currentColor" stroke-width="1.75" stroke-linecap="round" stroke-linejoin="round"><path d="M3 6h12M3 12h9M3 18h7"/><path d="M16 18V8l5-1.5v9"/><circle cx="14" cy="18" r="2"/><circle cx="19" cy="15.5" r="2"/></symbol>
<symbol id="i-youtube" viewBox="0 0 24 24" fill="none" stroke="currentColor" stroke-width="1.75" stroke-linecap="round" stroke-linejoin="round"><rect x="2.5" y="5" width="19" height="14" rx="4"/><path d="m10 9 5 3-5 3z" fill="currentColor"/></symbol>
<symbol id="i-settings" viewBox="0 0 24 24" fill="none" stroke="currentColor" stroke-width="1.75" stroke-linecap="round" stroke-linejoin="round"><circle cx="12" cy="12" r="3"/><path d="M19.4 15a1.65 1.65 0 0 0 .33 1.82l.06.06a2 2 0 1 1-2.83 2.83l-.06-.06a1.65 1.65 0 0 0-1.82-.33 1.65 1.65 0 0 0-1 1.51V21a2 2 0 1 1-4 0v-.09a1.65 1.65 0 0 0-1-1.51 1.65 1.65 0 0 0-1.82.33l-.06.06a2 2 0 1 1-2.83-2.83l.06-.06a1.65 1.65 0 0 0 .33-1.82 1.65 1.65 0 0 0-1.51-1H3a2 2 0 1 1 0-4h.09a1.65 1.65 0 0 0 1.51-1 1.65 1.65 0 0 0-.33-1.82l-.06-.06a2 2 0 1 1 2.83-2.83l.06.06a1.65 1.65 0 0 0 1.82.33H9a1.65 1.65 0 0 0 1-1.51V3a2 2 0 1 1 4 0v.09a1.65 1.65 0 0 0 1 1.51 1.65 1.65 0 0 0 1.82-.33l.06-.06a2 2 0 1 1 2.83 2.83l-.06.06a1.65 1.65 0 0 0-.33 1.82V9a1.65 1.65 0 0 0 1.51 1H21a2 2 0 1 1 0 4h-.09a1.65 1.65 0 0 0-1.51 1z"/></symbol>
<symbol id="i-moon" viewBox="0 0 24 24" fill="none" stroke="currentColor" stroke-width="1.75" stroke-linecap="round" stroke-linejoin="round"><path d="M20.5 14.5A8.5 8.5 0 1 1 9.5 3.5a7 7 0 0 0 11 11z"/></symbol>
<symbol id="i-sun" viewBox="0 0 24 24" fill="none" stroke="currentColor" stroke-width="1.75" stroke-linecap="round" stroke-linejoin="round"><circle cx="12" cy="12" r="4"/><path d="M12 2v2M12 20v2M4.93 4.93l1.41 1.41M17.66 17.66l1.41 1.41M2 12h2M20 12h2M4.93 19.07l1.41-1.41M17.66 6.34l1.41-1.41"/></symbol>
<symbol id="i-monitor" viewBox="0 0 24 24" fill="none" stroke="currentColor" stroke-width="1.75" stroke-linecap="round" stroke-linejoin="round"><rect x="3" y="4" width="18" height="12" rx="2"/><path d="M8 20h8M12 16v4"/></symbol>
<symbol id="i-check" viewBox="0 0 24 24" fill="none" stroke="currentColor" stroke-width="1.75" stroke-linecap="round" stroke-linejoin="round"><path d="m5 12.5 4.5 4.5L19 7.5"/></symbol>
<symbol id="i-check-double" viewBox="0 0 24 24" fill="none" stroke="currentColor" stroke-width="1.75" stroke-linecap="round" stroke-linejoin="round"><path d="m2 12.5 4.5 4.5L16 7.5"/><path d="m12 16 1 1 9.5-9.5"/></symbol>
<symbol id="i-x" viewBox="0 0 24 24" fill="none" stroke="currentColor" stroke-width="1.75" stroke-linecap="round" stroke-linejoin="round"><path d="M6 6l12 12M18 6 6 18"/></symbol>
<symbol id="i-check-circle" viewBox="0 0 24 24" fill="none" stroke="currentColor" stroke-width="1.75" stroke-linecap="round" stroke-linejoin="round"><circle cx="12" cy="12" r="9"/><path d="m8 12.5 3 3 5-6"/></symbol>
<symbol id="i-x-circle" viewBox="0 0 24 24" fill="none" stroke="currentColor" stroke-width="1.75" stroke-linecap="round" stroke-linejoin="round"><circle cx="12" cy="12" r="9"/><path d="m9 9 6 6M15 9l-6 6"/></symbol>
<symbol id="i-alert" viewBox="0 0 24 24" fill="none" stroke="currentColor" stroke-width="1.75" stroke-linecap="round" stroke-linejoin="round"><path d="M10.3 3.9 2.4 17.6A2 2 0 0 0 4.1 20.6h15.8a2 2 0 0 0 1.7-3L13.7 3.9a2 2 0 0 0-3.4 0z"/><path d="M12 9v4.5"/><circle cx="12" cy="17" r=".9" fill="currentColor"/></symbol>
<symbol id="i-alert-circle" viewBox="0 0 24 24" fill="none" stroke="currentColor" stroke-width="1.75" stroke-linecap="round" stroke-linejoin="round"><circle cx="12" cy="12" r="9"/><path d="M12 7.5V13"/><circle cx="12" cy="16.3" r=".9" fill="currentColor"/></symbol>
<symbol id="i-info" viewBox="0 0 24 24" fill="none" stroke="currentColor" stroke-width="1.75" stroke-linecap="round" stroke-linejoin="round"><circle cx="12" cy="12" r="9"/><path d="M12 11v5.5"/><circle cx="12" cy="7.8" r=".9" fill="currentColor"/></symbol>
<symbol id="i-music" viewBox="0 0 24 24" fill="none" stroke="currentColor" stroke-width="1.75" stroke-linecap="round" stroke-linejoin="round"><path d="M9 18V5l11-2v13"/><circle cx="6.5" cy="18" r="2.5"/><circle cx="17.5" cy="16" r="2.5"/></symbol>
<symbol id="i-headphones" viewBox="0 0 24 24" fill="none" stroke="currentColor" stroke-width="1.75" stroke-linecap="round" stroke-linejoin="round"><path d="M3 18v-6a9 9 0 0 1 18 0v6"/><path d="M21 19a2 2 0 0 1-2 2h-1a2 2 0 0 1-2-2v-3a2 2 0 0 1 2-2h3zM3 19a2 2 0 0 0 2 2h1a2 2 0 0 0 2-2v-3a2 2 0 0 0-2-2H3z"/></symbol>
<symbol id="i-disc" viewBox="0 0 24 24" fill="none" stroke="currentColor" stroke-width="1.75" stroke-linecap="round" stroke-linejoin="round"><circle cx="12" cy="12" r="9"/><circle cx="12" cy="12" r="2.5"/><path d="M16.5 7.5a6 6 0 0 1 1.5 3"/></symbol>
<symbol id="i-github" viewBox="0 0 24 24" fill="none" stroke="currentColor" stroke-width="1.75" stroke-linecap="round" stroke-linejoin="round"><path d="M9 19c-4.3 1.4-4.3-2.5-6-3m12 5v-3.5c0-1 .1-1.4-.5-2 2.8-.3 5.5-1.4 5.5-6a4.6 4.6 0 0 0-1.3-3.2 4.2 4.2 0 0 0-.1-3.2s-1.1-.3-3.5 1.3a12.3 12.3 0 0 0-6.2 0C6.5 2.8 5.4 3.1 5.4 3.1a4.2 4.2 0 0 0-.1 3.2A4.6 4.6 0 0 0 4 9.5c0 4.6 2.7 5.7 5.5 6-.6.6-.6 1.2-.5 2V21"/></symbol>
<symbol id="i-chevron-right" viewBox="0 0 24 24" fill="none" stroke="currentColor" stroke-width="1.75" stroke-linecap="round" stroke-linejoin="round"><path d="m9 6 6 6-6 6"/></symbol>
<symbol id="i-chevron-left" viewBox="0 0 24 24" fill="none" stroke="currentColor" stroke-width="1.75" stroke-linecap="round" stroke-linejoin="round"><path d="m15 6-6 6 6 6"/></symbol>
<symbol id="i-chevron-down" viewBox="0 0 24 24" fill="none" stroke="currentColor" stroke-width="1.75" stroke-linecap="round" stroke-linejoin="round"><path d="m6 9 6 6 6-6"/></symbol>
<symbol id="i-chevron-up" viewBox="0 0 24 24" fill="none" stroke="currentColor" stroke-width="1.75" stroke-linecap="round" stroke-linejoin="round"><path d="m6 15 6-6 6 6"/></symbol>
<symbol id="i-chevrons-down" viewBox="0 0 24 24" fill="none" stroke="currentColor" stroke-width="1.75" stroke-linecap="round" stroke-linejoin="round"><path d="m7 6 5 5 5-5"/><path d="m7 13 5 5 5-5"/></symbol>
<symbol id="i-arrow-right" viewBox="0 0 24 24" fill="none" stroke="currentColor" stroke-width="1.75" stroke-linecap="round" stroke-linejoin="round"><path d="M5 12h14"/><path d="m13 6 6 6-6 6"/></symbol>
<symbol id="i-arrow-left" viewBox="0 0 24 24" fill="none" stroke="currentColor" stroke-width="1.75" stroke-linecap="round" stroke-linejoin="round"><path d="M19 12H5"/><path d="m11 6-6 6 6 6"/></symbol>
<symbol id="i-trash" viewBox="0 0 24 24" fill="none" stroke="currentColor" stroke-width="1.75" stroke-linecap="round" stroke-linejoin="round"><path d="M4 7h16"/><path d="M10 11v6M14 11v6"/><path d="M6 7l1 12a2 2 0 0 0 2 2h6a2 2 0 0 0 2-2l1-12"/><path d="M9 7V4.5A1.5 1.5 0 0 1 10.5 3h3A1.5 1.5 0 0 1 15 4.5V7"/></symbol>
<symbol id="i-stop" viewBox="0 0 24 24" fill="none" stroke="currentColor" stroke-width="1.75" stroke-linecap="round" stroke-linejoin="round"><rect x="6" y="6" width="12" height="12" rx="2.5"/></symbol>
<symbol id="i-play" viewBox="0 0 24 24" fill="none" stroke="currentColor" stroke-width="1.75" stroke-linecap="round" stroke-linejoin="round"><path d="M7 4.8v14.4a1 1 0 0 0 1.5.86l11.5-7.2a1 1 0 0 0 0-1.72L8.5 3.94A1 1 0 0 0 7 4.8z"/></symbol>
<symbol id="i-play-circle" viewBox="0 0 24 24" fill="none" stroke="currentColor" stroke-width="1.75" stroke-linecap="round" stroke-linejoin="round"><circle cx="12" cy="12" r="9"/><path d="m10 8.5 5.5 3.5-5.5 3.5z"/></symbol>
<symbol id="i-forward" viewBox="0 0 24 24" fill="none" stroke="currentColor" stroke-width="1.75" stroke-linecap="round" stroke-linejoin="round"><path d="m5 5 9 7-9 7z"/><path d="M19 5v14"/></symbol>
<symbol id="i-search" viewBox="0 0 24 24" fill="none" stroke="currentColor" stroke-width="1.75" stroke-linecap="round" stroke-linejoin="round"><circle cx="11" cy="11" r="7"/><path d="m20 20-4-4"/></symbol>
<symbol id="i-refresh" viewBox="0 0 24 24" fill="none" stroke="currentColor" stroke-width="1.75" stroke-linecap="round" stroke-linejoin="round"><path d="M20 12a8 8 0 0 1-14.2 5"/><path d="M4 12A8 8 0 0 1 18.2 7"/><path d="M18.5 3v4.5H14"/><path d="M5.5 21v-4.5H10"/></symbol>
<symbol id="i-plug" viewBox="0 0 24 24" fill="none" stroke="currentColor" stroke-width="1.75" stroke-linecap="round" stroke-linejoin="round"><path d="M9 2v5M15 2v5"/><path d="M6 7h12v4a6 6 0 0 1-12 0z"/><path d="M12 17v5"/></symbol>
<symbol id="i-send" viewBox="0 0 24 24" fill="none" stroke="currentColor" stroke-width="1.75" stroke-linecap="round" stroke-linejoin="round"><path d="m21.5 2.5-7 19-4-8.5-8-4z"/><path d="M21.5 2.5 10.5 13"/></symbol>
<symbol id="i-clock" viewBox="0 0 24 24" fill="none" stroke="currentColor" stroke-width="1.75" stroke-linecap="round" stroke-linejoin="round"><circle cx="12" cy="12" r="9"/><path d="M12 7v5l3 2"/></symbol>
<symbol id="i-history" viewBox="0 0 24 24" fill="none" stroke="currentColor" stroke-width="1.75" stroke-linecap="round" stroke-linejoin="round"><path d="M3 12a9 9 0 1 0 3-6.7L3 8"/><path d="M3 3v5h5"/><path d="M12 7v5l3 2"/></symbol>
<symbol id="i-circle" viewBox="0 0 24 24" fill="none" stroke="currentColor" stroke-width="1.75" stroke-linecap="round" stroke-linejoin="round"><circle cx="12" cy="12" r="8"/></symbol>
<symbol id="i-ban" viewBox="0 0 24 24" fill="none" stroke="currentColor" stroke-width="1.75" stroke-linecap="round" stroke-linejoin="round"><circle cx="12" cy="12" r="9"/><path d="m5.6 5.6 12.8 12.8"/></symbol>
<symbol id="i-unlock" viewBox="0 0 24 24" fill="none" stroke="currentColor" stroke-width="1.75" stroke-linecap="round" stroke-linejoin="round"><rect x="4" y="11" width="16" height="10" rx="2"/><path d="M8 11V7a4 4 0 0 1 7.8-1.2"/></symbol>
<symbol id="i-power" viewBox="0 0 24 24" fill="none" stroke="currentColor" stroke-width="1.75" stroke-linecap="round" stroke-linejoin="round"><path d="M12 2v10"/><path d="M18.4 6.6a9 9 0 1 1-12.8 0"/></symbol>
<symbol id="i-folder" viewBox="0 0 24 24" fill="none" stroke="currentColor" stroke-width="1.75" stroke-linecap="round" stroke-linejoin="round"><path d="M3 7a2 2 0 0 1 2-2h4l2 2h8a2 2 0 0 1 2 2v9a2 2 0 0 1-2 2H5a2 2 0 0 1-2-2z"/></symbol>
<symbol id="i-folder-tree" viewBox="0 0 24 24" fill="none" stroke="currentColor" stroke-width="1.75" stroke-linecap="round" stroke-linejoin="round"><path d="M3 3v12a2 2 0 0 0 2 2h4"/><path d="M3 7h6"/><rect x="11" y="4" width="10" height="6" rx="1.5"/><rect x="11" y="14" width="10" height="6" rx="1.5"/></symbol>
<symbol id="i-save" viewBox="0 0 24 24" fill="none" stroke="currentColor" stroke-width="1.75" stroke-linecap="round" stroke-linejoin="round"><path d="M5 3h11l5 5v11a2 2 0 0 1-2 2H5a2 2 0 0 1-2-2V5a2 2 0 0 1 2-2z"/><path d="M7 3v5h8V3"/><rect x="7" y="13" width="10" height="8" rx="1"/></symbol>
<symbol id="i-fingerprint" viewBox="0 0 24 24" fill="none" stroke="currentColor" stroke-width="1.75" stroke-linecap="round" stroke-linejoin="round"><path d="M12 11v3a8 8 0 0 0 1.5 4.5"/><path d="M8.5 12a3.5 3.5 0 0 1 7 0v1.5a12 12 0 0 0 .8 4.5"/><path d="M5.5 14.5A10 10 0 0 1 5 11a7 7 0 0 1 12.2-4.7"/><path d="M19 10.5c.3 1.2.4 2.5.3 3.8"/><path d="M9.2 20a10.5 10.5 0 0 1-1.6-4.2"/></symbol>
<symbol id="i-database" viewBox="0 0 24 24" fill="none" stroke="currentColor" stroke-width="1.75" stroke-linecap="round" stroke-linejoin="round"><ellipse cx="12" cy="5.5" rx="8" ry="2.5"/><path d="M4 5.5v13c0 1.4 3.6 2.5 8 2.5s8-1.1 8-2.5v-13"/><path d="M4 12c0 1.4 3.6 2.5 8 2.5s8-1.1 8-2.5"/></symbol>
<symbol id="i-scale" viewBox="0 0 24 24" fill="none" stroke="currentColor" stroke-width="1.75" stroke-linecap="round" stroke-linejoin="round"><path d="M12 3v18M7 21h10"/><path d="M4 7h16"/><path d="m4 7-2.5 6a3 3 0 0 0 5 0z"/><path d="m20 7-2.5 6a3 3 0 0 0 5 0z"/></symbol>
<symbol id="i-flask" viewBox="0 0 24 24" fill="none" stroke="currentColor" stroke-width="1.75" stroke-linecap="round" stroke-linejoin="round"><path d="M9 3h6M10 3v6L4.5 19a1.5 1.5 0 0 0 1.3 2h12.4a1.5 1.5 0 0 0 1.3-2L14 9V3"/><path d="M7 15h10"/></symbol>
<symbol id="i-user" viewBox="0 0 24 24" fill="none" stroke="currentColor" stroke-width="1.75" stroke-linecap="round" stroke-linejoin="round"><circle cx="12" cy="8" r="4"/><path d="M4 21a8 8 0 0 1 16 0"/></symbol>
<symbol id="i-tag" viewBox="0 0 24 24" fill="none" stroke="currentColor" stroke-width="1.75" stroke-linecap="round" stroke-linejoin="round"><path d="M3 12V4a1 1 0 0 1 1-1h8l9 9-9 9z"/><circle cx="7.5" cy="7.5" r="1.3" fill="currentColor"/></symbol>
<symbol id="i-table" viewBox="0 0 24 24" fill="none" stroke="currentColor" stroke-width="1.75" stroke-linecap="round" stroke-linejoin="round"><rect x="3" y="4" width="18" height="16" rx="2"/><path d="M3 10h18M3 15h18M9 10v10M15 10v10"/></symbol>
<symbol id="i-grid" viewBox="0 0 24 24" fill="none" stroke="currentColor" stroke-width="1.75" stroke-linecap="round" stroke-linejoin="round"><rect x="3.5" y="3.5" width="7" height="7" rx="1.5"/><rect x="13.5" y="3.5" width="7" height="7" rx="1.5"/><rect x="3.5" y="13.5" width="7" height="7" rx="1.5"/><rect x="13.5" y="13.5" width="7" height="7" rx="1.5"/></symbol>
<symbol id="i-grip" viewBox="0 0 24 24" fill="none" stroke="currentColor" stroke-width="1.75" stroke-linecap="round" stroke-linejoin="round"><circle cx="9" cy="6" r="1.2" fill="currentColor"/><circle cx="15" cy="6" r="1.2" fill="currentColor"/><circle cx="9" cy="12" r="1.2" fill="currentColor"/><circle cx="15" cy="12" r="1.2" fill="currentColor"/><circle cx="9" cy="18" r="1.2" fill="currentColor"/><circle cx="15" cy="18" r="1.2" fill="currentColor"/></symbol>
<symbol id="i-star" viewBox="0 0 24 24" fill="none" stroke="currentColor" stroke-width="1.75" stroke-linecap="round" stroke-linejoin="round"><path d="m12 3 2.8 5.7 6.2.9-4.5 4.4 1.1 6.2L12 17.3l-5.6 2.9 1.1-6.2L3 9.6l6.2-.9z"/></symbol>
<symbol id="i-bot" viewBox="0 0 24 24" fill="none" stroke="currentColor" stroke-width="1.75" stroke-linecap="round" stroke-linejoin="round"><rect x="4" y="8" width="16" height="12" rx="3"/><path d="M12 4v4"/><circle cx="12" cy="3.5" r="1"/><circle cx="9" cy="14" r="1.2" fill="currentColor"/><circle cx="15" cy="14" r="1.2" fill="currentColor"/><path d="M2 13v3M22 13v3"/></symbol>
<symbol id="i-plus" viewBox="0 0 24 24" fill="none" stroke="currentColor" stroke-width="1.75" stroke-linecap="round" stroke-linejoin="round"><path d="M12 5v14M5 12h14"/></symbol>
<symbol id="i-minus" viewBox="0 0 24 24" fill="none" stroke="currentColor" stroke-width="1.75" stroke-linecap="round" stroke-linejoin="round"><path d="M5 12h14"/></symbol>
<symbol id="i-pointer" viewBox="0 0 24 24" fill="none" stroke="currentColor" stroke-width="1.75" stroke-linecap="round" stroke-linejoin="round"><path d="M9 11V4.5a1.5 1.5 0 0 1 3 0V10"/><path d="M12 9.5a1.5 1.5 0 0 1 3 0V11"/><path d="M15 10.5a1.5 1.5 0 0 1 3 0V15a6 6 0 0 1-6 6h-1a6 6 0 0 1-4.8-2.4L3.6 15a1.5 1.5 0 0 1 2.3-1.9L9 15"/></symbol>
<symbol id="i-gauge" viewBox="0 0 24 24" fill="none" stroke="currentColor" stroke-width="1.75" stroke-linecap="round" stroke-linejoin="round"><path d="M12 14l4-5"/><path d="M3.5 18a9.5 9.5 0 1 1 17 0"/><circle cx="12" cy="14" r="1.2" fill="currentColor"/></symbol>
<symbol id="i-filter" viewBox="0 0 24 24" fill="none" stroke="currentColor" stroke-width="1.75" stroke-linecap="round" stroke-linejoin="round"><path d="M3 5h18l-7 8.5V20l-4-2v-4.5z"/></symbol>
<symbol id="i-file-import" viewBox="0 0 24 24" fill="none" stroke="currentColor" stroke-width="1.75" stroke-linecap="round" stroke-linejoin="round"><path d="M14 3H7a2 2 0 0 0-2 2v4"/><path d="M14 3l5 5v11a2 2 0 0 1-2 2H7a2 2 0 0 1-2-2v-1"/><path d="M14 3v5h5"/><path d="M2 14h9"/><path d="m8 11 3 3-3 3"/></symbol>
<symbol id="i-file-code" viewBox="0 0 24 24" fill="none" stroke="currentColor" stroke-width="1.75" stroke-linecap="round" stroke-linejoin="round"><path d="M14 3H7a2 2 0 0 0-2 2v14a2 2 0 0 0 2 2h10a2 2 0 0 0 2-2V8z"/><path d="M14 3v5h5"/><path d="m10 12-2 2.5 2 2.5M14 12l2 2.5-2 2.5"/></symbol>
<symbol id="i-bell" viewBox="0 0 24 24" fill="none" stroke="currentColor" stroke-width="1.75" stroke-linecap="round" stroke-linejoin="round"><path d="M6 8a6 6 0 0 1 12 0c0 7 3 9 3 9H3s3-2 3-9"/><path d="M10.3 21a1.9 1.9 0 0 0 3.4 0"/></symbol>
<symbol id="i-message" viewBox="0 0 24 24" fill="none" stroke="currentColor" stroke-width="1.75" stroke-linecap="round" stroke-linejoin="round"><path d="M21 12a8.5 8.5 0 0 1-12.6 7.4L3 21l1.6-5.4A8.5 8.5 0 1 1 21 12z"/></symbol>
<symbol id="i-cookie" viewBox="0 0 24 24" fill="none" stroke="currentColor" stroke-width="1.75" stroke-linecap="round" stroke-linejoin="round"><path d="M12 3a9 9 0 1 0 9 9 4 4 0 0 1-4.5-4.5A4 4 0 0 1 12 3z"/><circle cx="8.5" cy="10" r="1" fill="currentColor"/><circle cx="14" cy="15" r="1" fill="currentColor"/><circle cx="9" cy="15.5" r="1" fill="currentColor"/></symbol>
<symbol id="i-loader" viewBox="0 0 24 24" fill="none" stroke="currentColor" stroke-width="1.75" stroke-linecap="round" stroke-linejoin="round"><path d="M12 3a9 9 0 1 0 9 9" /></symbol>
<symbol id="i-external" viewBox="0 0 24 24" fill="none" stroke="currentColor" stroke-width="1.75" stroke-linecap="round" stroke-linejoin="round"><path d="M14 4h6v6"/><path d="M20 4 11 13"/><path d="M19 14v4a2 2 0 0 1-2 2H6a2 2 0 0 1-2-2V7a2 2 0 0 1 2-2h4"/></symbol>
<symbol id="i-link" viewBox="0 0 24 24" fill="none" stroke="currentColor" stroke-width="1.75" stroke-linecap="round" stroke-linejoin="round"><path d="M10 14a4 4 0 0 0 5.66 0l3-3a4 4 0 0 0-5.66-5.66l-1 1"/><path d="M14 10a4 4 0 0 0-5.66 0l-3 3a4 4 0 0 0 5.66 5.66l1-1"/></symbol>
<symbol id="i-more" viewBox="0 0 24 24" fill="none" stroke="currentColor" stroke-width="1.75" stroke-linecap="round" stroke-linejoin="round"><circle cx="5.5" cy="12" r="1.3" fill="currentColor"/><circle cx="12" cy="12" r="1.3" fill="currentColor"/><circle cx="18.5" cy="12" r="1.3" fill="currentColor"/></symbol>
<symbol id="i-sparkles" viewBox="0 0 24 24" fill="none" stroke="currentColor" stroke-width="1.75" stroke-linecap="round" stroke-linejoin="round"><path d="M12 3l1.8 4.7L18.5 9.5l-4.7 1.8L12 16l-1.8-4.7L5.5 9.5l4.7-1.8z"/><path d="M19 15l.8 2.2L22 18l-2.2.8L19 21l-.8-2.2L16 18l2.2-.8z"/></symbol>
<symbol id="i-waveform" viewBox="0 0 24 24" fill="none" stroke="currentColor" stroke-width="1.75" stroke-linecap="round" stroke-linejoin="round"><path d="M3 12h2M7 8v8M11 4v16M15 7v10M19 10v4M21 12h0"/></symbol>
<symbol id="i-key" viewBox="0 0 24 24" fill="none" stroke="currentColor" stroke-width="1.75" stroke-linecap="round" stroke-linejoin="round"><circle cx="8" cy="15" r="4"/><path d="m11 12 9-9M17 6l3 3M15 8l2 2"/></symbol>
<symbol id="i-shield" viewBox="0 0 24 24" fill="none" stroke="currentColor" stroke-width="1.75" stroke-linecap="round" stroke-linejoin="round"><path d="M12 3 4 6v6c0 5 3.5 8 8 9 4.5-1 8-4 8-9V6z"/></symbol>
<symbol id="i-copy" viewBox="0 0 24 24" fill="none" stroke="currentColor" stroke-width="1.75" stroke-linecap="round" stroke-linejoin="round"><rect x="8" y="8" width="13" height="13" rx="2"/><path d="M16 8V5a2 2 0 0 0-2-2H5a2 2 0 0 0-2 2v9a2 2 0 0 0 2 2h3"/></symbol>
<symbol id="i-eye" viewBox="0 0 24 24" fill="none" stroke="currentColor" stroke-width="1.75" stroke-linecap="round" stroke-linejoin="round"><path d="M2 12s3.5-7 10-7 10 7 10 7-3.5 7-10 7S2 12 2 12z"/><circle cx="12" cy="12" r="3"/></symbol>
<symbol id="i-calendar" viewBox="0 0 24 24" fill="none" stroke="currentColor" stroke-width="1.75" stroke-linecap="round" stroke-linejoin="round"><rect x="3" y="5" width="18" height="16" rx="2"/><path d="M3 10h18M8 3v4M16 3v4"/></symbol>
<symbol id="i-sort" viewBox="0 0 24 24" fill="none" stroke="currentColor" stroke-width="1.75" stroke-linecap="round" stroke-linejoin="round"><path d="M7 4v16M3 16l4 4 4-4"/><path d="M17 20V4M13 8l4-4 4 4"/></symbol>
<symbol id="i-undo" viewBox="0 0 24 24" fill="none" stroke="currentColor" stroke-width="1.75" stroke-linecap="round" stroke-linejoin="round"><path d="M9 14 4 9l5-5"/><path d="M4 9h10.5a5.5 5.5 0 0 1 0 11H11"/></symbol>
<symbol id="i-wifi-off" viewBox="0 0 24 24" fill="none" stroke="currentColor" stroke-width="1.75" stroke-linecap="round" stroke-linejoin="round"><path d="M2 2l20 20"/><path d="M8.5 16.5a5 5 0 0 1 7 0"/><path d="M5 12.9a10 10 0 0 1 5.2-2.8M19 12.9a10 10 0 0 0-2.2-1.6"/><path d="M2 8.8a15 15 0 0 1 4.2-2.6M22 8.8A15 15 0 0 0 10.7 5"/><circle cx="12" cy="20" r=".9" fill="currentColor"/></symbol>
<symbol id="i-sliders" viewBox="0 0 24 24" fill="none" stroke="currentColor" stroke-width="1.75" stroke-linecap="round" stroke-linejoin="round"><path d="M4 6h10M18 6h2M4 12h4M12 12h8M4 18h12M20 18h0"/><circle cx="16" cy="6" r="2"/><circle cx="10" cy="12" r="2"/><circle cx="18" cy="18" r="2"/></symbol>
<symbol id="i-library" viewBox="0 0 24 24" fill="none" stroke="currentColor" stroke-width="1.75" stroke-linecap="round" stroke-linejoin="round"><path d="M4 4v16M8 4v16"/><path d="m12.5 4.5 3.8-.9 3.6 15.6-3.8.9z"/></symbol>
<symbol id="i-compass" viewBox="0 0 24 24" fill="none" stroke="currentColor" stroke-width="1.75" stroke-linecap="round" stroke-linejoin="round"><circle cx="12" cy="12" r="9"/><path d="m15.5 8.5-2 5-5 2 2-5z"/></symbol>
<symbol id="i-pause" viewBox="0 0 24 24" fill="none" stroke="currentColor" stroke-width="1.75" stroke-linecap="round" stroke-linejoin="round"><rect x="6.5" y="5" width="3.5" height="14" rx="1"/><rect x="14" y="5" width="3.5" height="14" rx="1"/></symbol>
<symbol id="i-skip-back" viewBox="0 0 24 24" fill="none" stroke="currentColor" stroke-width="1.75" stroke-linecap="round" stroke-linejoin="round"><path d="m19 5-9 7 9 7z"/><path d="M5 5v14"/></symbol>
<symbol id="i-volume" viewBox="0 0 24 24" fill="none" stroke="currentColor" stroke-width="1.75" stroke-linecap="round" stroke-linejoin="round"><path d="M4 9.5h3.5L12 5.5v13l-4.5-4H4z"/><path d="M15.5 9a4 4 0 0 1 0 6"/><path d="M18.3 6.5a7.5 7.5 0 0 1 0 11"/></symbol>
<symbol id="i-volume-off" viewBox="0 0 24 24" fill="none" stroke="currentColor" stroke-width="1.75" stroke-linecap="round" stroke-linejoin="round"><path d="M4 9.5h3.5L12 5.5v13l-4.5-4H4z"/><path d="m16 10 4 4M20 10l-4 4"/></symbol>
</svg>
